<svg width="32" height="32" viewBox="0 0 21 22" fill="none" xmlns="http://www.w3.org/2000/svg">
<g id="noun-delete-1057636 3">
<g id="Group">
<path id="Vector" d="M12.558 17.192C13.7656 17.192 14.7349 16.221 14.7825 14.9702L15.0368 6.84037H16.2285C16.4033 6.84037 16.5463 6.69228 16.5463 6.51126C16.5463 6.33023 16.4033 6.18214 16.2285 6.18214H12.8917V5.4416C12.8917 4.71746 12.3197 4.125 11.6205 4.125H9.20535C8.50618 4.125 7.93415 4.71746 7.93415 5.4416V6.18214H4.58144C4.40664 6.18214 4.26367 6.33023 4.26367 6.51126C4.26367 6.69228 4.40665 6.84037 4.58144 6.84037H5.77316L6.02742 14.9702C6.07508 16.2209 7.04436 17.192 8.25192 17.192H12.558ZM8.56974 5.44157C8.56974 5.07951 8.8557 4.78334 9.20527 4.78334H11.6205C11.9701 4.78334 12.2561 5.07951 12.2561 5.44157V6.18211H8.56966L8.56974 5.44157ZM6.67885 14.9373L6.42459 6.82397H14.4171L14.1471 14.9373C14.1153 15.826 13.4161 16.5337 12.5581 16.5337H8.26791C7.40981 16.5337 6.71064 15.8424 6.67883 14.9373H6.67885Z" fill="#F52D2D"/>
<path id="Vector_2" d="M10.4135 14.4266C10.5883 14.4266 10.7312 14.2785 10.7312 14.0975V9.17677C10.7312 8.99574 10.5883 8.84766 10.4135 8.84766C10.2387 8.84766 10.0957 8.99574 10.0957 9.17677V14.0975C10.0957 14.2784 10.2387 14.4265 10.4135 14.4265V14.4266Z" fill="#F52D2D"/>
<path id="Vector_3" d="M8.50526 14.4266C8.68006 14.4266 8.82303 14.2785 8.82303 14.0975V9.17677C8.82303 8.99574 8.68005 8.84766 8.50526 8.84766C8.33047 8.84766 8.1875 8.99574 8.1875 9.17677V14.0975C8.1875 14.2784 8.33048 14.4265 8.50526 14.4265V14.4266Z" fill="#F52D2D"/>
<path id="Vector_4" d="M12.3197 14.4266C12.4945 14.4266 12.6375 14.2785 12.6375 14.0975V9.17677C12.6375 8.99574 12.4945 8.84766 12.3197 8.84766C12.1449 8.84766 12.002 8.99574 12.002 9.17677V14.0975C12.002 14.2784 12.1449 14.4265 12.3197 14.4265V14.4266Z" fill="#F52D2D"/>
</g>
</g>
</svg>
