<svg width="366" height="113" viewBox="0 0 366 113" fill="none" xmlns="http://www.w3.org/2000/svg">
<path d="M170.735 43.1356H148.379C146.574 43.1356 145.786 40.8049 147.263 39.7544C147.296 39.7544 147.296 39.7215 147.329 39.7215C149.43 38.2771 152.22 38.4084 152.22 38.4084C152.22 38.4084 152.614 30.5625 160.066 30.5625C163.743 30.5625 166.73 36.8654 166.73 36.8654C166.73 36.8654 171.753 36.8654 172.574 40.8048C172.803 41.9866 171.983 43.1356 170.735 43.1356Z" fill="white" stroke="#E1E4E5" stroke-width="4" stroke-miterlimit="10" stroke-linecap="round" stroke-linejoin="round"/>
<path d="M75.4347 34.8936H96.4775C98.3487 34.8936 99.1694 32.4644 97.6265 31.3811C97.5937 31.3811 97.5938 31.3483 97.561 31.3483C95.3615 29.8382 92.4726 29.9694 92.4726 29.9694C92.4726 29.9694 92.0457 21.8281 84.3311 21.8281C77.3388 21.8281 74.5484 28.6892 73.5307 32.4972C73.2353 33.6791 74.1872 34.8936 75.4347 34.8936Z" fill="white" stroke="#E1E4E5" stroke-width="4" stroke-miterlimit="10" stroke-linecap="round" stroke-linejoin="round"/>
<path d="M240.003 33.8832C245.058 33.8832 242.694 25.8733 236.293 27.7773C235.932 16.6486 217.811 8.54006 210.326 23.5097C208.192 21.8354 203.465 24.9869 204.515 27.7773C202.152 27.9743 200.313 28.2369 198.869 28.598C195.553 29.4187 196.21 33.8176 199.624 33.7848L240.003 33.8832Z" fill="white" stroke="#E1E4E5" stroke-width="4" stroke-miterlimit="10" stroke-linecap="round" stroke-linejoin="round"/>
<path d="M157.012 18.5792H187.74C190.628 18.5792 190.497 16.2154 189.545 15.3619C188.593 14.5084 186.656 14.8695 186.656 14.8695C186.656 14.8695 186.098 13.261 184.227 12.506C182.586 11.8166 180.846 12.1448 180.846 12.1448C180.846 12.1448 180.846 11.0615 179.795 10.1423C178.745 9.2231 177.333 9.32158 177.333 9.32158C177.333 9.32158 176.348 3.28125 169.881 3.28125C163.381 3.28125 162.626 8.96044 162.626 8.96044C162.626 8.96044 161.182 8.96044 160.098 9.94528C159.048 10.9301 158.917 12.0135 158.917 12.0135C158.917 12.0135 155.371 11.5211 154.321 14.6069C153.73 16.3796 155.01 18.5792 157.012 18.5792Z" fill="white" stroke="#E1E4E5" stroke-width="4" stroke-miterlimit="10" stroke-linecap="round" stroke-linejoin="round"/>
<path d="M270.533 67.7275C270.533 78.3309 279.134 86.9319 289.738 86.9319C300.341 86.9319 308.942 78.3309 308.942 67.7275C308.942 57.124 300.341 36.1797 289.738 36.1797C279.134 36.2125 270.533 57.124 270.533 67.7275Z" fill="white" stroke="#E1E4E5" stroke-width="4" stroke-miterlimit="10" stroke-linecap="round" stroke-linejoin="round"/>
<path d="M298.601 70.0275C298.174 69.6008 297.517 69.6008 297.091 70.0275L290.82 76.3634V53.9418L296.368 48.3281C296.795 47.9014 296.762 47.2121 296.368 46.7853H296.336C295.909 46.3586 295.252 46.3586 294.825 46.7853L290.788 50.856V46.0302C290.788 45.4393 290.229 44.9141 289.639 44.9141H289.606C289.015 44.9141 288.457 45.4393 288.457 46.0302V60.212L285.24 56.8963C284.813 56.4695 284.156 56.4695 283.729 56.8963C283.303 57.3231 283.27 58.0125 283.697 58.4393L288.457 63.2649V94.8127H290.755V79.4164L298.568 71.5705C299.06 71.1109 299.027 70.4215 298.601 70.0275Z" fill="white" stroke="#E1E4E5" stroke-width="4" stroke-miterlimit="10" stroke-linecap="round" stroke-linejoin="round"/>
<path d="M95.6247 70.5817C95.6247 79.8064 88.1728 87.2583 78.9481 87.2583C69.7234 87.2583 62.2715 79.8064 62.2715 70.5817C62.2715 61.357 69.7234 43.2031 78.9481 43.2031C88.1728 43.2031 95.6247 61.357 95.6247 70.5817Z" fill="white" stroke="#E1E4E5" stroke-width="4" stroke-miterlimit="10" stroke-linecap="round" stroke-linejoin="round"/>
<path d="M84.0711 61.1533C83.6771 60.7594 83.1519 60.7594 82.7908 61.1533L80.066 63.9766V51.7318C80.066 51.2065 79.5735 50.8125 79.0483 50.8125H79.0156C78.4903 50.8125 78.0963 51.2065 78.0963 51.7318V72.1836L72.6797 66.7341C72.3185 66.373 71.7276 66.373 71.3665 66.7341C71.0054 67.0952 71.0054 67.6861 71.3665 68.0472L78.1291 74.8098V94.1127H80.0988V66.6357L84.1366 62.4993C84.4649 62.1054 84.4322 61.5144 84.0711 61.1533Z" fill="white" stroke="#E1E4E5" stroke-width="4" stroke-miterlimit="10" stroke-linecap="round" stroke-linejoin="round"/>
<path d="M216.039 110.964C216.039 110.964 241.349 93.9587 276.902 93.7289C312.619 93.4991 341.015 110.044 343.642 110.931L216.039 110.964Z" fill="white" stroke="#E1E4E5" stroke-width="4" stroke-miterlimit="10" stroke-linecap="round" stroke-linejoin="round"/>
<path d="M24.291 110.896C24.291 110.896 49.6014 93.6618 85.1542 93.432C120.871 93.2022 149.268 110.076 151.894 110.962L24.291 110.896Z" fill="white" stroke="#E1E4E5" stroke-width="4" stroke-miterlimit="10" stroke-linecap="round" stroke-linejoin="round"/>
<path d="M2 110.961H363.634" stroke="#E1E4E5" stroke-width="4" stroke-miterlimit="10" stroke-linecap="round" stroke-linejoin="round"/>
<path d="M284.155 58.5928C284.155 79.7012 270.204 88.3677 253.002 88.3677C235.8 88.3677 221.848 79.7012 221.848 58.5928C221.848 37.4843 243.285 4.82031 253.002 4.82031C262.719 4.82031 284.155 37.4843 284.155 58.5928Z" fill="white" stroke="#E1E4E5" stroke-width="4" stroke-miterlimit="10" stroke-linecap="round" stroke-linejoin="round"/>
<path d="M253.033 36.3047H253.001C251.819 36.3047 250.834 37.2566 250.834 38.4712V110.956H255.2V38.4712C255.167 37.2566 254.215 36.3047 253.033 36.3047Z" fill="white" stroke="#E1E4E5" stroke-width="4" stroke-miterlimit="10" stroke-linecap="round" stroke-linejoin="round"/>
<path d="M253.855 83.3798L271.681 65.5541C272.535 64.7005 272.535 63.3547 271.681 62.5011L271.648 62.4683C270.795 61.6147 269.449 61.6147 268.595 62.4683L254.151 76.9783" fill="white"/>
<path d="M253.855 83.3798L271.681 65.5541C272.535 64.7005 272.535 63.3547 271.681 62.5011L271.648 62.4683C270.795 61.6147 269.449 61.6147 268.595 62.4683L254.151 76.9783" stroke="#E1E4E5" stroke-width="4" stroke-miterlimit="10" stroke-linecap="round" stroke-linejoin="round"/>
<path d="M252.083 64.4421L234.257 46.6166C233.404 45.763 233.404 44.417 234.257 43.5635L234.29 43.5308C235.144 42.6772 236.49 42.6772 237.343 43.5308L251.787 58.0407" fill="white"/>
<path d="M252.083 64.4421L234.257 46.6166C233.404 45.763 233.404 44.417 234.257 43.5635L234.29 43.5308C235.144 42.6772 236.49 42.6772 237.343 43.5308L251.787 58.0407" stroke="#E1E4E5" stroke-width="4" stroke-miterlimit="10" stroke-linecap="round" stroke-linejoin="round"/>
<path d="M146.378 64.0122C146.378 79.9009 135.873 94.1811 122.939 94.1811C110.005 94.1811 99.5 79.9009 99.5 64.0122C99.5 48.1234 115.619 2 122.939 2C130.26 2 146.378 48.1562 146.378 64.0122Z" fill="white" stroke="#E1E4E5" stroke-width="4" stroke-miterlimit="10" stroke-linecap="round" stroke-linejoin="round"/>
<path d="M122.971 23.4375C122.052 23.4375 121.33 24.1597 121.33 25.046V110.924H124.613V25.046C124.58 24.1597 123.858 23.4375 122.971 23.4375Z" fill="white" stroke="#E1E4E5" stroke-width="4" stroke-miterlimit="10" stroke-linecap="round" stroke-linejoin="round"/>
<path d="M123.596 79.5362L136.989 66.1424C137.613 65.5186 137.613 64.4681 136.989 63.8444L136.957 63.8115C136.333 63.1878 135.283 63.1878 134.659 63.8115L123.793 74.7432" fill="white"/>
<path d="M123.596 79.5362L136.989 66.1424C137.613 65.5186 137.613 64.4681 136.989 63.8444L136.957 63.8115C136.333 63.1878 135.283 63.1878 134.659 63.8115L123.793 74.7432" stroke="#E1E4E5" stroke-width="4" stroke-miterlimit="10" stroke-linecap="round" stroke-linejoin="round"/>
<path d="M122.382 65.2918L113.716 56.4939C113.092 55.8702 113.092 54.8197 113.716 54.196L113.749 54.1631C114.372 53.5394 115.423 53.5394 116.047 54.1631L122.186 60.466" fill="white"/>
<path d="M122.382 65.2918L113.716 56.4939C113.092 55.8702 113.092 54.8197 113.716 54.196L113.749 54.1631C114.372 53.5394 115.423 53.5394 116.047 54.1631L122.186 60.466" stroke="#E1E4E5" stroke-width="4" stroke-miterlimit="10" stroke-linecap="round" stroke-linejoin="round"/>
<path d="M123.726 44.5418L132.393 35.7439C133.017 35.1202 133.017 34.0697 132.393 33.446L132.36 33.4131C131.736 32.7894 130.686 32.7894 130.062 33.4131L123.529 40.1429" fill="white"/>
<path d="M123.726 44.5418L132.393 35.7439C133.017 35.1202 133.017 34.0697 132.393 33.446L132.36 33.4131C131.736 32.7894 130.686 32.7894 130.062 33.4131L123.529 40.1429" stroke="#E1E4E5" stroke-width="4" stroke-miterlimit="10" stroke-linecap="round" stroke-linejoin="round"/>
<path d="M163.676 99.3359V110.957" stroke="#E1E4E5" stroke-width="4" stroke-miterlimit="10" stroke-linecap="round" stroke-linejoin="round"/>
<path d="M209.176 99.3359V110.957" stroke="#E1E4E5" stroke-width="4" stroke-miterlimit="10" stroke-linecap="round" stroke-linejoin="round"/>
<path d="M166.928 110.96V73.6016" stroke="#E1E4E5" stroke-width="4" stroke-miterlimit="10" stroke-linecap="round" stroke-linejoin="round"/>
<path d="M205.729 110.96V73.6016" stroke="#E1E4E5" stroke-width="4" stroke-miterlimit="10" stroke-linecap="round" stroke-linejoin="round"/>
<path d="M212.133 83.8125H160.494V89.7873H212.133V83.8125Z" fill="white" stroke="#E1E4E5" stroke-width="4" stroke-miterlimit="10" stroke-linecap="round" stroke-linejoin="round"/>
<path d="M212.133 74.7188H160.494V81.0545H212.133V74.7188Z" fill="white" stroke="#E1E4E5" stroke-width="4" stroke-miterlimit="10" stroke-linecap="round" stroke-linejoin="round"/>
<path d="M217.22 94.8438H155.404V99.374H217.22V94.8438Z" fill="white" stroke="#E1E4E5" stroke-width="4" stroke-miterlimit="10" stroke-linecap="round" stroke-linejoin="round"/>
</svg>
