<svg width="16" height="16" viewBox="0 0 16 16" fill="none" xmlns="http://www.w3.org/2000/svg">
<path d="M8 11C9.65685 11 11 9.65685 11 8C11 6.34315 9.65685 5 8 5C6.34315 5 5 6.34315 5 8C5 9.65685 6.34315 11 8 11Z" stroke="white" stroke-linecap="round" stroke-linejoin="round"/>
<path d="M11.4812 4.06873C11.6396 4.21456 11.7896 4.36456 11.9312 4.51873L13.6375 4.76248C13.9155 5.24529 14.1298 5.76209 14.275 6.29998L13.2375 7.68123C13.2375 7.68123 13.2562 8.10623 13.2375 8.31873L14.275 9.69998C14.1304 10.2381 13.9161 10.755 13.6375 11.2375L11.9312 11.4812C11.9312 11.4812 11.6375 11.7875 11.4812 11.9312L11.2375 13.6375C10.7547 13.9155 10.2379 14.1298 9.69998 14.275L8.31873 13.2375C8.10664 13.2562 7.89331 13.2562 7.68123 13.2375L6.29998 14.275C5.76186 14.1304 5.24498 13.9161 4.76248 13.6375L4.51873 11.9312C4.36456 11.7854 4.21456 11.6354 4.06873 11.4812L2.36248 11.2375C2.08446 10.7547 1.87018 10.2379 1.72498 9.69998L2.76248 8.31873C2.76248 8.31873 2.74373 7.89373 2.76248 7.68123L1.72498 6.29998C1.86951 5.76186 2.08383 5.24498 2.36248 4.76248L4.06873 4.51873C4.21456 4.36456 4.36456 4.21456 4.51873 4.06873L4.76248 2.36248C5.24529 2.08446 5.76209 1.87018 6.29998 1.72498L7.68123 2.76248C7.89331 2.74372 8.10664 2.74372 8.31873 2.76248L9.69998 1.72498C10.2381 1.86951 10.755 2.08383 11.2375 2.36248L11.4812 4.06873Z" stroke="white" stroke-linecap="round" stroke-linejoin="round"/>
</svg>
